# xmcd CD database file
#
# Track frame offsets:
#	150
#	24671
#	43975
#	74717
#	92810
#	118006
#	145619
#	182744
#	205242
#	226922
#
# Disc length: 3395 seconds
#
# Revision: 0
# Processed by: cddbd v1.5PL3 Copyright (c) Steve Scherf et al.
# Submitted via: CDex 1.51
#
DISCID=910d410a
DTITLE=Marmalade Trio - Marmalade Trio
DYEAR=1999
DGENRE=Jazz
TTITLE0=The Bella Dance
TTITLE1=Lady Madonna
TTITLE2=The Crystal Sea
TTITLE3=Every Breath You Take
TTITLE4=Bonaira
TTITLE5=Smile
TTITLE6=That Happy Thought
TTITLE7=Carioca
TTITLE8=Isn't She Lovely
TTITLE9=Mangrove Malaise
EXTD=YEAR: 1999
EXTT0=
EXTT1=
EXTT2=
EXTT3=
EXTT4=
EXTT5=
EXTT6=
EXTT7=
EXTT8=
EXTT9=
PLAYORDER=
